<svg xmlns="http://www.w3.org/2000/svg" viewBox="0 0 5000 5000"><g style="stroke:#000;stroke-opacity:1"><g style="stroke:none;stroke-opacity:1;fill:#fe0000;fill-opacity:1"><path d="M1038 4310a538 538 0 0 1-471-365" style="fill:#fe0000;fill-opacity:1;stroke:none;stroke-width:1px;stroke-linecap:butt;stroke-linejoin:miter;stroke-opacity:1"/><path d="M567 3945a504 504 0 0 1 470 365" style="fill:#fe0000;fill-opacity:1;stroke:none;stroke-width:1px;stroke-linecap:butt;stroke-linejoin:miter;stroke-opacity:1"/><path d="M2249 4986A2510 2510 0 0 1 26 2855c-24-156-29-499-9-642A2508 2508 0 0 1 2172 22c169-25 511-22 685 5 552 86 1012 317 1397 699a2478 2478 0 0 1 735 1546c13 138 5 457-15 585-68 434-220 796-484 1151a3135 3135 0 0 1-482 483 2500 2500 0 0 1-1277 496c-110 11-371 11-482-1zm236-242c0-23-71-208-113-296a2409 2409 0 0 0-878-981c-308-202-655-338-954-373a905 905 0 0 0-204-12c0 13 79 206 123 301 129 279 278 500 475 701 357 366 824 578 1442 654l102 13c4 0 7-3 7-7zm204-15c809-105 1388-486 1761-1160 87-156 230-484 213-486-23-4-154 3-210 10-418 56-894 287-1252 607a2357 2357 0 0 0-576 756c-39 84-104 260-104 283 0 8 9 10 30 8l138-18zm-46-1478c155-33 272-92 378-192a710 710 0 0 0 213-338c22-73 34-181 32-217-4-64-9-149-32-223a772 772 0 0 0-559-527c-96-23-269-21-367 5a778 778 0 0 0-550 549 903 903 0 0 0 1 381 769 769 0 0 0 616 567c70 12 201 9 268-5zM590 1899c175-26 360-84 567-177 531-239 1015-711 1232-1202 31-70 96-247 96-262 0-7-63-2-188 15-741 104-1281 431-1650 999a3460 3460 0 0 0-311 647c0 8 150-4 254-20zm4073 19c3-3-17-60-43-127-206-519-502-902-902-1164a2415 2415 0 0 0-716-298c-190-46-481-86-481-67 0 5 13 47 28 94 41 125 152 344 240 475 343 511 917 910 1500 1045 121 28 361 55 374 42z" style="fill:#fe0000;fill-opacity:1;stroke:none;stroke-width:9.71993256000000017;stroke-miterlimit:4;stroke-opacity:1;stroke-dasharray:none"/></g><path fill="none" stroke="none" d="M2029 3924c-64-75-187-194-285-275-355-296-802-504-1189-555l-40-5V1912l8-2 36-5c163-20 361-78 562-166 311-135 592-334 841-595l56-58h966l47 49c282 298 620 523 987 660 102 38 235 77 323 93 116 22 307 41 320 33 6-5 1-22-23-86a2890 2890 0 0 0-405-735l-12-14h335l31 46c213 323 348 693 393 1081 10 88 13 133 13 251 0 193-9 326-28 437a2478 2478 0 0 1-438 1053l-5 7-168-1h-168l21-26c91-110 189-259 261-394 83-158 206-442 197-457-3-4-114-1-175 5-350 35-776 215-1119 472a2676 2676 0 0 0-401 371l-26 30h-884l-31-37zm556-664a770 770 0 0 0 683-734 768 768 0 0 0-539-758c-79-25-142-32-254-30-111 3-169 14-258 50a827 827 0 0 0-323 242 761 761 0 0 0 212 1128c84 50 202 92 293 102 32 4 144 4 186 0z" style="fill:#000;fill-opacity:0;stroke:none"/></g></svg>