<svg xmlns="http://www.w3.org/2000/svg" version="1.0" viewBox="0 0 580 1400"><path d="M511 797c-5-6-10-14-10-18 0-10-7-16-32-25-11-4-23-10-26-14-12-13-2-53 14-57 6-2 13-10 22-26 16-28 27-41 38-43 8-2 11-9 3-9-3 0-18 6-33 14-19 10-30 13-35 12-10-3-23-21-23-32 0-9 55-66 72-75 12-6 13-4 4 10-9 13-9 18 1 18 11 0 19-13 20-29v-12l-21 1c-23 1-33-4-33-18 0-7-2-5-16 10-17 17-103 129-115 148-8 13-26 26-36 26-14 0-30-29-25-47 4-17 16-47 23-54l18-30 22-34 17-27c13-24 16-21 15 10l1 26c5 0 30-20 45-38 21-25 67-84 74-95 4-8 4-9 0-12-3-2-12-3-19-3-10 0-14-2-13-5s10-6 34-11c8-1 30-30 28-37l-6-17-5-12-31 10c-50 17-49 16-52 65-3 32-6 47-11 49-2 0-9-12-15-27-15-38-16-40-20-36l-19 7c-10 3-19 9-27 17-13 14-19 16-27 7-7-7-16-32-16-42 0-18 26-58 37-58 4 0 11 5 16 10l9 9 10-6 10-6v-42l4-157c6-195 7-241 5-241-3 0-18 32-23 51-11 39-22 70-27 77l-6 7-13-12c-10-11-12-26-16-43-1-7-7-14-7-21 0-13 7-30 53-125 30-61 54-113 54-117 0-9-7-7-20 6-15 16-21 19-29 15-10-6-14-16-19-44l-7-33c-4-19 1-21 20-10 24 14 32 13 50-3l14-13v-34c-1-19-3-37-5-41-8-16 16-48 36-48 10 0 20 8 20 16 0 2 2 4 5 4 2 0 6 3 8 7 5 8 23 20 31 20 4 0 11 5 17 12l9 12-7 14c-9 17-40 47-61 58-13 8-14 9-17 27-2 16-2 20 2 25 5 5 9 1 50-41 76-79 82-87 93-118 7-19 13-22 22-14 14 13 21 32 22 62 2 32-2 43-23 59-7 4-14 12-18 18-3 5-9 13-13 16l-8 7 6 8 7 9 19-19c26-25 32-28 44-21 19 9 30 28 30 47 0 10-3 18-11 30-35 47-36 51-25 67 9 11 13 41 6 48a376 376 0 0 0-91 46c-7 6-3 12 12 18 13 6 14 21 1 34-11 11-9 13 5 7 9-4 11-6 11-17 0-10 1-14 4-14s5 1 5 3c0 1 7 7 15 12 29 18 32 31 13 53-12 15-12 15-31 15-24 0-30 5-39 35-7 22-12 48-8 48l19-17c19-18 22-19 49-12 23 6 30 10 37 20s6 20-3 38c-8 14-8 18-5 34 2 9 3 30 3 47v29l9-2 19-5c5-2 16-3 23-3 11 0 16 2 24 11 12 11 21 34 21 49 0 7-4 15-17 28-19 20-30 24-63 24-25 0-29-4-14-14 4-3 12-13 17-22l8-17-13 2c-17 3-70 18-78 22-7 4-5 8 7 11l20 7c9 5 11 7 11 17 0 21-8 32-27 41l-18 8 45 4c39 3 48 5 68 15 12 5 28 15 36 21l29 18c10 5 17 12 20 20 5 10 6 33 2 33l-8 11c-3 7-7 12-8 11-3-1-17 4-45 16-25 11-26 12-42 7l-16-5-3 11c-5 14-12 21-51 42l-32 20c0 1 9 5 19 8 54 15 64 22 67 49v22l-16 11c-30 17-80 89-85 121-4 22-29 27-45 10zm30-74c10-14 11-16 3-11-17 11-34-8-24-27 2-6 6-11 8-12s3-5 3-8c0-4-1-3-7 3-13 17-33 53-31 56 4 7 23 17 30 16 3 0 11-8 18-17zm54-70c2-4-7-26-9-24l-8 24-6 22 11-9c6-5 11-11 12-13zm-11-141c8-4 9-10 2-16-6-5-8-4-10 9-3 12-1 13 8 7zm98-50c11-15 10-17-21-35a241 241 0 0 0-115-39l-14 16c-11 12-14 19-14 28 0 16 8 14 28-7l17-18 18 3 24 3c8 0 22 15 22 22 0 5-6 12-24 27-5 4-9 10-9 14 0 5 4 6 24 8 13 1 26 4 30 7 7 5 8 5 17-6l17-23zM472 243l19-7-6-12c-9-14-8-30 1-50 6-14 9-25 10-55a1392 1392 0 0 1 8-95c-1-1-8 1-15 4-14 4-14 4-24-6L451 4c-4-8-3-9 7-18 6-5 12-15 14-23 5-19 11-31 24-46 10-11 20-37 16-41-1-1-5 1-10 4-15 11-26 11-35 0-10-12-17-40-11-50 5-11 9-12 32-12 25 0 35-6 42-22 2-6 5-17 5-25 0-11-2-13-7-13-7 0-10 6-10 25 0 22-4 28-19 28-19 0-34-6-36-14-9-42-10-36 11-71 16-28 20-31 27-30s13 7 19 22l9-4c9-3 9-5 7-17-1-7-5-17-9-22-5-7-6-11-3-21 5-17 13-25 24-25 7 0 10-3 17-15 5-10 6-16 4-18-8-8-93 98-118 146-18 36-21 57-24 138-6 146-3 282 9 351 4 26 3 25 36 12zm81-52c4-8 4-11-1-23-9-24-19-12-13 18 3 20 6 21 14 5zm54-10v-24l-7 18c-11 31-11 30-1 30 8 0 8-1 8-24zm-6-69-7-34c0-4-11 3-22 15-12 12-14 16-5 14 11-3 20 4 29 22l10 16c1-1-2-16-5-33zM518-65c0-5-1-6-3-2-2 3-7 8-8 13-3 8 1 9 6 2 3-3 5-9 5-13zm82-211c20-37 18-52-2-26-18 22-26 47-18 55 3 3 5 0 20-29zM471-464c13-13 13-16 1-16-8 0-11 2-14 8-3 10-4 18-1 18 2 0 8-5 14-10z" style="fill:#000" transform="translate(-239 565)"/></svg>